Patient4_TMGait_0pt4_03_right_06_EMG.mot
version=1
nRows=13
nColumns=33
inDegrees=no
endheader
time	1LAddLong	2LGlutMax	3LGlutMed	4LIliopsoas	5LSemiMemb	6LBicFemLong	7LRecFem	8LVastMed	9LVastLat	10LGasMed	11LTibAnt	12lTibPost	13LPeroneusLong	14LSol	15LExtDigLong	16LFlexDigLong	17RAddLong	18RGlutMax	19RGlutMed	20RIliopsoas	21RSemiMemb	22RBicFemLong	23RRecFem	24RVastMed	25RVastLat	26RGasMed	27RTibAnt	28RTibPost	29RPeroneusLong	30RSol	31RExtDigLong	32RFlexDigLong
6.76	0.00412	-0.1294	0.007629	0.009918	0.046844	-0.011444	-0.045929	0.002441	0.10788	0.047455	0.050812	0.007172	-0.18799	-0.00412	0.6665	0.00946	0.077057	-0.076141	0.31357	-0.004578	-0.019531	-0.18936	0.055084	-0.1088	-0.008545	0.00824	0.10239	-0.008392	-0.35538	-0.024872	-0.003052	-0.000763
6.761	-0.005035	-0.15457	-0.018311	0.022278	0.013275	0.005951	-0.049286	0.005035	0.099945	-0.005035	0.022736	0.008087	-0.17822	0.069733	0.27252	-0.009613	0.058746	-0.09613	0.067596	0.097046	-0.011749	-0.16541	0.068817	-0.12863	0.003052	0.009613	0.16678	-0.003967	-0.094147	0.04364	-0.010376	0.004883
6.762	0.000763	-0.11551	-0.01709	0.022583	0.016022	0.024109	0.016785	0.003662	0.032806	-0.016785	-0.02121	0.014496	-0.065308	0.00412	-0.43976	-0.007782	0.044403	-0.12512	-0.11414	0.077667	-0.027771	-0.16586	0.009155	-0.095062	0.020905	-0.006409	0.19211	-0.00473	0.060425	0.10559	-0.007324	-0.008698
6.763	0.002594	-0.04364	-0.026398	0.013275	0.004425	0.020905	0.024109	0.006256	0.008698	-0.018616	-0.051727	0.003815	-0.073853	-0.024414	0.064697	0.012207	-0.002747	-0.080872	0.037842	0.020142	-0.035095	-0.17716	-0.014801	-0.11032	0.036163	0.000153	-0.00061	-0.005951	0.26337	0.10147	-0.009155	-0.007172
6.764	0.013428	-0.021973	-0.03891	-0.021667	0.011749	0.010071	0.009918	0.008087	0.001221	-0.035553	-0.042877	0.009155	0.037537	0.018616	-0.27542	0.000305	-0.040283	-0.065613	0.14282	0.078583	-0.030212	-0.1564	-0.021057	-0.083313	0.052338	0.007782	-0.14084	-0.003967	0.20508	0.02594	0.001221	-0.006256
6.765	0.009766	-0.04776	-0.005035	-0.023193	0.019379	-0.001068	-0.012054	0.006104	0.019836	-0.047302	-0.020905	0.011139	0.19531	0.10376	-0.29114	0.015869	0.029297	-0.048523	0.13031	0.045471	-0.014038	-0.22492	-0.02243	-0.075531	0.042114	0.00061	-0.13428	-0.003052	0.14191	-0.017548	-0.006561	-0.010529
6.766	0.002594	-0.029602	-0.05722	-0.010834	0.004272	0.016479	-0.022125	0.01297	0.006409	-0.031128	0.002441	0.00824	0.032349	0.19608	-0.076141	0.001526	0.17929	-0.07782	-0.1503	0.003662	0.035248	-0.26886	-0.051422	-0.07843	0.049744	0.011139	-0.12878	-0.009308	0.14862	-0.026398	-0.003967	-0.011292
6.767	0.005493	-0.027924	-0.068817	0.013428	0.005341	0.022583	-0.006561	0.007172	0.019684	0.015869	0.11643	0.003967	-0.19318	0.14954	-0.18158	-0.010223	0.18921	-0.056458	0.009613	-0.002136	0.058289	-0.33905	-0.03418	-0.053101	0.025177	0.005951	-0.099335	-0.005798	0.066986	0.022583	-0.003967	-0.009308
6.768	0.007324	0.003204	-0.042267	0.000305	0.004578	0.033112	0.010376	0.010071	-0.009155	0.001068	0.069122	0.004578	-0.065765	0.087585	-0.34332	0.001373	0.19379	-0.052643	0.018463	0.010681	0.032043	-0.41534	-0.002594	-0.052338	0.008698	0.002899	-0.078735	-0.005798	0.015259	0.003967	-0.004425	-0.006866
6.769	0.006256	-0.034027	0.003967	0.02594	0.008545	0.038757	-0.019989	0.007782	-0.03952	-0.027161	0.017242	0.003204	0.032349	0.13733	-0.11581	-0.015259	0.14435	-0.084076	-0.16403	0.027313	-0.042267	-0.5191	0.008087	-0.068512	-0.019379	-0.001373	0.031281	-0.002747	0.061035	-0.000763	0.001221	-0.010223
6.77	0.007629	-0.007782	0.044861	-0.019531	0.010681	0.014954	-0.018921	0.007019	-0.012054	-0.056458	0.16861	-0.001678	0.077057	0.066071	0.21866	0.00412	0.065002	-0.11169	-0.088501	0.046844	-0.046844	-0.4184	0.013885	-0.047302	-0.019379	0.000153	0.13367	0.00351	0.035706	0.024567	0.002594	-0.00824
6.771	0.006561	0.010986	0.032196	-0.037231	0.0177	0.001068	-0.058441	0.004272	0.006256	-0.052795	0.13031	0.003204	0.070801	-0.099792	0.090485	-0.013275	-0.040741	-0.09903	0.13153	-0.041351	-0.044556	-0.33234	0.034637	-0.08606	-0.028687	0	0.082703	-0.003662	0.041504	0.039368	0.000153	-0.006714
6.772	0.001984	0.04425	0.092468	-0.020752	0.031128	-0.001678	-0.10544	0.013885	0.011139	-0.005188	-0.1387	0.005188	0.10559	-0.0354	0.062103	-0.002136	-0.16769	-0.047302	0.51727	-0.12528	-0.026398	-0.21194	0.03479	-0.007019	-0.01236	0.000763	0.13397	-0.00351	0.060272	-0.013733	-0.002289	-0.00061
